<svg xmlns="http://www.w3.org/2000/svg" xmlns:xlink="http://www.w3.org/1999/xlink" width="2000" zoomAndPan="magnify" viewBox="0 0 1500 1499.999933" height="2000" preserveAspectRatio="xMidYMid meet" version="1.0"><defs><clipPath id="f170107a3c"><path d="M 262.5 262.5 L 1237.5 262.5 L 1237.5 1237.5 L 262.5 1237.5 Z M 262.5 262.5 " clip-rule="nonzero"/></clipPath><clipPath id="f691bdddb5"><path d="M 750 262.5 C 480.761719 262.5 262.5 480.761719 262.5 750 C 262.5 1019.238281 480.761719 1237.5 750 1237.5 C 1019.238281 1237.5 1237.5 1019.238281 1237.5 750 C 1237.5 480.761719 1019.238281 262.5 750 262.5 Z M 750 262.5 " clip-rule="nonzero"/></clipPath><clipPath id="f3314d6350"><path d="M 0.5 0.5 L 975.5 0.5 L 975.5 975.5 L 0.5 975.5 Z M 0.5 0.5 " clip-rule="nonzero"/></clipPath><clipPath id="725fe31ef4"><path d="M 488 0.5 C 218.761719 0.5 0.5 218.761719 0.5 488 C 0.5 757.238281 218.761719 975.5 488 975.5 C 757.238281 975.5 975.5 757.238281 975.5 488 C 975.5 218.761719 757.238281 0.5 488 0.5 Z M 488 0.5 " clip-rule="nonzero"/></clipPath><clipPath id="0f2f6dce17"><rect x="0" width="976" y="0" height="976"/></clipPath><clipPath id="a4700d7502"><path d="M 477.691406 355 L 1022.191406 355 L 1022.191406 1135 L 477.691406 1135 Z M 477.691406 355 " clip-rule="nonzero"/></clipPath></defs><g clip-path="url(#f170107a3c)"><g clip-path="url(#f691bdddb5)"><g transform="matrix(1, 0, 0, 1, 262, 262)"><g clip-path="url(#0f2f6dce17)"><g clip-path="url(#f3314d6350)"><g clip-path="url(#725fe31ef4)"><path fill="#142b01" d="M 0.5 0.5 L 975.5 0.5 L 975.5 975.5 L 0.5 975.5 Z M 0.5 0.5 " fill-opacity="1" fill-rule="nonzero"/></g></g></g></g></g></g><g clip-path="url(#a4700d7502)"><path fill="#7ac242" d="M 651.636719 822.484375 C 651.011719 783.324219 624.214844 760.507812 600.277344 735.574219 L 650.890625 780.875 C 656.28125 758.351562 676.527344 630.660156 676.152344 613.734375 C 680.839844 706.535156 656.15625 783.074219 670.550781 880.355469 C 703.53125 847.625 721.828125 805.269531 760.574219 773.78125 C 740.289062 793.40625 687.4375 868.65625 679.96875 885 C 660.84375 926.816406 688.226562 1001.242188 710.210938 1042.601562 L 739.625 992.28125 C 772.394531 932.792969 814.089844 870.027344 866.605469 822.898438 C 783.429688 936.941406 779.488281 939.179688 718.921875 1058.117188 C 767.375 1146.1875 834.789062 1163.859375 930.824219 1067.699219 C 960.777344 1037.707031 988.363281 989.792969 1002.34375 960.421875 C 1110.824219 732.421875 743.066406 661.816406 721.082031 355.746094 C 594.054688 484.71875 236.335938 1081.265625 734.5625 1134.488281 C 680.34375 1063.714844 699.257812 1026.671875 623.300781 940.839844 C 609.074219 924.785156 593.929688 911.425781 579.410156 890.019531 L 656.902344 955.402344 C 659.308594 920.054688 652.300781 862.433594 651.675781 822.484375 Z M 651.636719 822.484375 " fill-opacity="1" fill-rule="evenodd"/></g></svg>